<svg width="13" height="14" viewBox="0 0 13 14" fill="none" xmlns="http://www.w3.org/2000/svg">
<path d="M7.00391 4.66016V11H5.91406V4.66016H7.00391ZM5.83203 2.97852C5.83203 2.80273 5.88477 2.6543 5.99023 2.5332C6.09961 2.41211 6.25977 2.35156 6.4707 2.35156C6.67773 2.35156 6.83594 2.41211 6.94531 2.5332C7.05859 2.6543 7.11523 2.80273 7.11523 2.97852C7.11523 3.14648 7.05859 3.29102 6.94531 3.41211C6.83594 3.5293 6.67773 3.58789 6.4707 3.58789C6.25977 3.58789 6.09961 3.5293 5.99023 3.41211C5.88477 3.29102 5.83203 3.14648 5.83203 2.97852Z" fill="#848484"/>
<circle cx="6.5" cy="6.5" r="6.1" stroke="#848484" stroke-width="0.8"/>
</svg>
